<svg width="137" height="27" viewBox="0 0 137 27" fill="none" xmlns="http://www.w3.org/2000/svg">
<rect x="6" width="125" height="27" fill="#CFA968"/>
<rect x="131" width="6" height="9" fill="#CFA968"/>
<rect x="131" y="18" width="6" height="9" fill="#CFA968"/>
<path d="M6 9C6 9 6 10.5 6 13.5C6 16.5 6 18 6 18L-9.9374e-08 18C-9.9374e-08 18 4 17.25 4 13.5C4 9.75 0 9 0 9L6 9Z" fill="#CFA968"/>
<rect width="6" height="9" fill="#CFA968"/>
<rect y="18" width="6" height="9" fill="#CFA968"/>
<path d="M131 18C131 18 131 16.5 131 13.5C131 10.5 131 9 131 9L137 9C137 9 133 9.75 133 13.5C133 17.25 137 18 137 18L131 18Z" fill="#CFA968"/>
</svg>
